<svg xmlns="http://www.w3.org/2000/svg" xmlns:xlink="http://www.w3.org/1999/xlink" viewBox="0,0,256,256" width="48px" height="48px" fill-rule="nonzero"><g fill="#faf9f6" fill-rule="nonzero" stroke="none" stroke-width="1" stroke-linecap="butt" stroke-linejoin="miter" stroke-miterlimit="10" stroke-dasharray="" stroke-dashoffset="0" font-family="none" font-weight="none" font-size="none" text-anchor="none" style="mix-blend-mode: normal"><g transform="scale(4,4)"><path d="M29,7c-3.314,0 -6,2.686 -6,6h-8c-3.314,0 -6,2.686 -6,6v7.17383c2.661,0.576 13.639,2.82617 23,2.82617c9.361,0 20.339,-2.25017 23,-2.82617v-7.17383c0,-3.314 -2.686,-6 -6,-6h-8c0,-3.314 -2.686,-6 -6,-6zM29,11h6c1.104,0 2,0.895 2,2h-10c0,-1.105 0.896,-2 2,-2zM9,30.26172v14.73828c0,3.314 2.686,6 6,6h34c3.314,0 6,-2.686 6,-6v-14.73828c-3.144,0.655 -11.137,2.18709 -19,2.62109v0.11719c0,1.105 -0.896,2 -2,2h-5c-1.104,0 -2,-0.895 -2,-2v-0.17773c-7.532,-0.502 -14.989,-1.93355 -18,-2.56055z"></path></g></g></svg>